<?xml version="1.0" encoding="utf-8"?>
<!-- Generator: Adobe Illustrator 28.4.1, SVG Export Plug-In . SVG Version: 6.00 Build 0)  -->
<svg version="1.0" id="Layer_1" xmlns="http://www.w3.org/2000/svg" xmlns:xlink="http://www.w3.org/1999/xlink" x="0px" y="0px"
	 viewBox="0 0 354 74" style="enable-background:new 0 0 354 74;" xml:space="preserve">
<style type="text/css">
	.st0{fill:#1D2A3C;}
	.st1{fill:#EE3124;}
</style>
<g id="Logo">
	<g>
		<g>
			<path class="st0" d="M56.1,44.6h15.4v2.9H52.8V27h3.3V44.6z"/>
			<path class="st0" d="M87.5,26.9l11.3,20.6h-3.9l-2.7-5H79l-2.7,5h-3.7l11.1-20.6H87.5L87.5,26.9z M90.7,39.6l-5-9.5l-5.1,9.5
				H90.7z"/>
			<path class="st0" d="M118.4,26.9h3.3v20.6h-3l-15-16.7v16.7h-3.2V26.9h4l13.9,15.4V26.9z"/>
			<path class="st0" d="M147.7,33.1l-2.7,1c-1.2-2.9-4-4.6-8-4.6c-4.4,0-8.7,2.5-8.7,7.7c0,5.5,4.1,7.7,9.1,7.7
				c4.3,0,7.9-1.7,8.2-5.4h-7.3v-2.9h10.4c1,7.1-4.1,11.3-11.5,11.3s-12.1-4.2-12.1-10.6s5-10.7,12.3-10.7
				C142.9,26.6,146.9,29.5,147.7,33.1L147.7,33.1z"/>
			<path class="st0" d="M151.8,37.8V26.9h3.2v10.8c0,3.8,2.4,7,8,7c6,0,8-3.2,8-6.9V26.9h3.2v10.8c0,6.2-4.3,10.1-11.3,10.1
				C155.9,47.8,151.8,43.9,151.8,37.8L151.8,37.8z"/>
			<path class="st0" d="M189.2,26.9l11.3,20.6h-3.9l-2.7-5h-13.2l-2.7,5h-3.7l11.1-20.6H189.2L189.2,26.9z M192.3,39.6l-5-9.5
				l-5.1,9.5H192.3z"/>
			<path class="st0" d="M223.1,33.1l-2.7,1c-1.2-2.9-4-4.6-8-4.6c-4.4,0-8.7,2.5-8.7,7.7c0,5.5,4.1,7.7,9.1,7.7
				c4.3,0,7.9-1.7,8.2-5.4h-7.3v-2.9H224c1,7.1-4.1,11.3-11.5,11.3s-12.1-4.2-12.1-10.6s5-10.7,12.3-10.7
				C218.2,26.6,222.2,29.5,223.1,33.1L223.1,33.1z"/>
			<path class="st0" d="M230.6,44.6h15.6v3h-18.9V26.9h18.6V30h-15.3v5.3h12.8v3h-12.8L230.6,44.6L230.6,44.6z"/>
			<path class="st1" d="M267.7,40.2l2.8,1.5c-2.2,4.6-5.9,6.1-10.9,6.1c-7.1,0-11.5-3.8-11.5-10.2s4.5-11,11.5-11
				c4.4,0,9,1.8,10.6,6.3l-2.8,1.2c-1.4-3.4-4.4-4.6-7.8-4.6c-5.4,0-8.3,2.9-8.3,8.2c0,4.5,3.2,7.2,8.5,7.2
				C263.9,45,266.2,43,267.7,40.2L267.7,40.2z"/>
			<path class="st1" d="M276.5,44.6H292v3h-18.9V26.9h18.6V30h-15.3v5.3h12.8v3h-12.8V44.6z"/>
			<path class="st1" d="M309.1,38.6l6.4,8.9h-4.1l-6.2-8.7h-7.2v8.7h-3.3V26.9h12.5c6.2,0,7.7,3.1,7.7,5.9
				C314.9,36.6,311.9,38.3,309.1,38.6z M306.8,35.7c3.4,0,4.8-0.8,4.8-2.8c0-2.1-1.5-2.9-4.8-2.9h-8.7v5.7L306.8,35.7L306.8,35.7z"
				/>
			<path class="st1" d="M316.3,26.9h22.3V30h-9.5v17.5h-3.3V30h-9.5V26.9z"/>
			<path class="st1" d="M345,29.2c0,1.3-1,2.3-2.3,2.3c-1.3,0-2.3-1-2.3-2.3c0-1.3,1-2.3,2.3-2.3C344,26.9,345,27.9,345,29.2z
				 M342.8,31c0.9,0,1.7-0.8,1.7-1.8s-0.8-1.8-1.7-1.8s-1.8,0.8-1.8,1.8C341,30.2,341.7,31,342.8,31z M343.6,29.8
				c0.1,0.4,0.1,0.5,0.2,0.6h-0.6c-0.1-0.1-0.1-0.3-0.2-0.6c-0.1-0.2-0.2-0.3-0.4-0.3h-0.3v0.9h-0.5v-2.2c0.3-0.1,0.5-0.1,0.9-0.1
				c0.4,0,1,0.2,1,0.7c0,0.3-0.3,0.5-0.4,0.5v0C343.5,29.3,343.6,29.5,343.6,29.8L343.6,29.8z M343.2,28.7c0-0.3-0.3-0.4-0.5-0.4
				h-0.3v0.7h0.3C342.9,29.1,343.2,29,343.2,28.7L343.2,28.7z"/>
		</g>
		<path class="st1" d="M42.1,41.8c0.2-1.1,0.3-2.4,0.4-3.6c0-9.6-7.8-17.4-17.5-17.4c-3.1,0-6.2,0.8-8.9,2.4
			c-2.6,1.5-4.8,3.8-6.3,6.4c-1.8,3.2-2.6,7.1-1.9,10.8c0.6,3.5,2.5,6.6,5.1,9c2.6,2.4,6,3.8,9.5,4.3c0.9,0.1,1.8,0.1,2.7,0.1
			c4.8-0.2,9-2.4,12-5.8c1.3,3.1,4,5.7,9.6,5.1C46,52.7,40.4,52.8,42.1,41.8 M26.6,49.1c-1.2,0.6-2.5,0.8-3.8,0.4
			c-5-1.6-8.7-6.1-9-11.6c-0.3-6.1,3.8-11.3,9.4-12.9c1.5-0.4,3.1-0.2,4.5,0.5l0,0c-0.1,0-0.2,0-0.3,0c-5.1,0.3-9.3,3.9-10.7,8.5
			c0,0,0-0.1,0-0.1c-0.1,0.2-0.1,0.3-0.2,0.5c-1.9,5.8,1.8,11.8,7.9,14.1C25.3,48.8,26,49,26.6,49.1L26.6,49.1L26.6,49.1z
			 M32.8,43.2c-0.9,1.4-1.9,2.7-3.1,3.7c-0.6,0.5-1.4,0.7-2.1,0.4c-5.3-2.1-7.2-6.4-5.7-11.2c0.8-2.5,2.5-4.5,4.7-5.6
			c3.5-1.7,7.5,0.5,8,4.3C35,37.9,34.1,41.1,32.8,43.2"/>
	</g>
</g>
<g>
</g>
<g>
</g>
<g>
</g>
<g>
</g>
<g>
</g>
<g>
</g>
</svg>
